<svg width="142" height="100" viewBox="0 0 142 100" fill="none" xmlns="http://www.w3.org/2000/svg">
<path d="M3.984 81L6.648 67.368L7.632 68.592H1.56L2.424 64.2H17.832L16.968 68.592H10.752L12.216 67.368L9.552 81H3.984ZM16.2199 81L19.5799 64.2H27.0439C29.2999 64.2 31.0359 64.688 32.2519 65.664C33.4839 66.64 34.0999 68.008 34.0999 69.768C34.0999 71.176 33.7479 72.416 33.0439 73.488C32.3559 74.56 31.3719 75.392 30.0919 75.984C28.8279 76.576 27.3319 76.872 25.6039 76.872H20.1799L23.2039 74.4L21.8839 81H16.2199ZM23.0599 75.072L21.0679 72.504H25.8919C26.6759 72.504 27.2839 72.312 27.7159 71.928C28.1479 71.528 28.3639 70.976 28.3639 70.272C28.3639 69.664 28.1719 69.232 27.7879 68.976C27.4199 68.704 26.9079 68.568 26.2519 68.568H21.8599L24.8839 65.928L23.0599 75.072ZM31.6817 81L42.3857 64.2H47.9537L51.9377 81H46.2977L43.5857 66.816H45.7937L37.6577 81H31.6817ZM36.6257 78.072L38.8817 73.992H46.6097L47.2337 78.072H36.6257ZM67.7443 64.2H73.4083L70.0483 81H64.3843L67.7443 64.2ZM59.1523 81H53.4883L56.8483 64.2H62.5123L59.1523 81ZM65.9923 74.808H60.0163L60.9523 70.152H66.9283L65.9923 74.808ZM82.3952 81.384C80.6672 81.384 79.1552 81.072 77.8592 80.448C76.5632 79.808 75.5552 78.928 74.8352 77.808C74.1312 76.672 73.7792 75.36 73.7792 73.872C73.7792 72.4 74.0352 71.048 74.5472 69.816C75.0752 68.584 75.8112 67.52 76.7552 66.624C77.6992 65.728 78.8192 65.04 80.1152 64.56C81.4112 64.064 82.8352 63.816 84.3872 63.816C86.0032 63.816 87.4352 64.104 88.6832 64.68C89.9312 65.256 90.8592 66.088 91.4672 67.176L87.3872 70.368C87.0352 69.744 86.5792 69.264 86.0192 68.928C85.4592 68.576 84.7952 68.4 84.0272 68.4C83.3552 68.4 82.7392 68.528 82.1792 68.784C81.6352 69.024 81.1632 69.376 80.7632 69.84C80.3632 70.288 80.0512 70.824 79.8272 71.448C79.6032 72.072 79.4912 72.76 79.4912 73.512C79.4912 74.168 79.6352 74.744 79.9232 75.24C80.2112 75.736 80.6112 76.12 81.1232 76.392C81.6512 76.664 82.2592 76.8 82.9472 76.8C83.6032 76.8 84.2432 76.648 84.8672 76.344C85.5072 76.04 86.1152 75.544 86.6912 74.856L90.0272 78.048C89.0032 79.296 87.8592 80.168 86.5952 80.664C85.3472 81.144 83.9472 81.384 82.3952 81.384Z" fill="#EEEEEE"/>
<path d="M98.2539 81L101.614 64.2H107.182L105.982 70.152H110.326L109.414 74.808H105.07L103.822 81H98.2539ZM114.502 81.384C112.87 81.384 111.438 81.064 110.206 80.424C108.99 79.784 108.038 78.896 107.35 77.76C106.662 76.608 106.318 75.28 106.318 73.776C106.318 72.4 106.598 71.112 107.158 69.912C107.718 68.712 108.494 67.656 109.486 66.744C110.478 65.832 111.622 65.12 112.918 64.608C114.214 64.08 115.598 63.816 117.07 63.816C118.702 63.816 120.126 64.136 121.342 64.776C122.574 65.416 123.534 66.304 124.222 67.44C124.91 68.576 125.254 69.904 125.254 71.424C125.254 72.8 124.974 74.088 124.414 75.288C123.854 76.488 123.078 77.544 122.086 78.456C121.094 79.368 119.95 80.088 118.654 80.616C117.358 81.128 115.974 81.384 114.502 81.384ZM115.006 76.8C115.614 76.8 116.19 76.672 116.734 76.416C117.278 76.144 117.75 75.776 118.15 75.312C118.566 74.832 118.886 74.288 119.11 73.68C119.35 73.056 119.47 72.4 119.47 71.712C119.47 71.024 119.35 70.432 119.11 69.936C118.886 69.44 118.558 69.064 118.126 68.808C117.694 68.536 117.174 68.4 116.566 68.4C115.958 68.4 115.382 68.536 114.838 68.808C114.294 69.064 113.814 69.432 113.398 69.912C112.998 70.376 112.678 70.912 112.438 71.52C112.214 72.128 112.102 72.776 112.102 73.464C112.102 74.152 112.214 74.744 112.438 75.24C112.678 75.736 113.014 76.12 113.446 76.392C113.894 76.664 114.414 76.8 115.006 76.8ZM125.559 81L128.919 64.2H141.711L140.847 68.592H132.327L133.791 67.368L131.127 81H125.559Z" fill="#D72323"/>
<path d="M10.188 99V90.6H15.888L15.876 91.92H11.352L11.712 91.548L11.724 99H10.188ZM17.1955 99V90.6H20.6515C21.3955 90.6 22.0315 90.72 22.5595 90.96C23.0955 91.2 23.5075 91.544 23.7955 91.992C24.0835 92.44 24.2275 92.972 24.2275 93.588C24.2275 94.204 24.0835 94.736 23.7955 95.184C23.5075 95.632 23.0955 95.976 22.5595 96.216C22.0315 96.456 21.3955 96.576 20.6515 96.576H18.0595L18.7555 95.844V99H17.1955ZM18.7555 96.012L18.0595 95.256H20.5795C21.2675 95.256 21.7835 95.112 22.1275 94.824C22.4795 94.528 22.6555 94.116 22.6555 93.588C22.6555 93.052 22.4795 92.64 22.1275 92.352C21.7835 92.064 21.2675 91.92 20.5795 91.92H18.0595L18.7555 91.152V96.012ZM25.6358 97.68C26.0758 97.832 26.4638 97.872 26.7998 97.8C27.1358 97.728 27.4358 97.484 27.6998 97.068L28.1078 96.432L28.2638 96.264L31.1918 90.6H32.7278L29.0798 97.38C28.7838 97.948 28.4318 98.38 28.0238 98.676C27.6158 98.972 27.1758 99.136 26.7038 99.168C26.2398 99.208 25.7558 99.12 25.2518 98.904L25.6358 97.68ZM28.2278 97.608L24.4838 90.6H26.1518L29.0798 96.408L28.2278 97.608ZM33.0668 98.172L33.5708 97.032C33.9308 97.28 34.3228 97.472 34.7468 97.608C35.1788 97.736 35.6068 97.804 36.0308 97.812C36.4548 97.82 36.8388 97.772 37.1828 97.668C37.5348 97.564 37.8148 97.408 38.0228 97.2C38.2308 96.992 38.3348 96.732 38.3348 96.42C38.3348 96.044 38.1788 95.764 37.8668 95.58C37.5628 95.388 37.1468 95.292 36.6188 95.292H34.6628V94.068H36.4988C36.9708 94.068 37.3348 93.972 37.5908 93.78C37.8548 93.588 37.9868 93.328 37.9868 93C37.9868 92.728 37.8988 92.504 37.7228 92.328C37.5548 92.152 37.3228 92.02 37.0268 91.932C36.7388 91.844 36.4108 91.804 36.0428 91.812C35.6828 91.812 35.3068 91.868 34.9148 91.98C34.5228 92.084 34.1508 92.24 33.7988 92.448L33.3068 91.188C33.8348 90.908 34.3868 90.712 34.9628 90.6C35.5468 90.488 36.1108 90.456 36.6548 90.504C37.1988 90.552 37.6868 90.676 38.1188 90.876C38.5588 91.076 38.9108 91.34 39.1748 91.668C39.4388 91.988 39.5708 92.368 39.5708 92.808C39.5708 93.208 39.4628 93.564 39.2468 93.876C39.0388 94.18 38.7508 94.416 38.3828 94.584C38.0148 94.752 37.5868 94.836 37.0988 94.836L37.1588 94.452C37.7108 94.452 38.1908 94.548 38.5988 94.74C39.0148 94.924 39.3348 95.18 39.5588 95.508C39.7908 95.836 39.9068 96.216 39.9068 96.648C39.9068 97.056 39.8028 97.42 39.5948 97.74C39.3868 98.052 39.1028 98.316 38.7428 98.532C38.3828 98.74 37.9708 98.896 37.5068 99C37.0428 99.096 36.5548 99.132 36.0428 99.108C35.5308 99.084 35.0188 98.996 34.5068 98.844C34.0028 98.692 33.5228 98.468 33.0668 98.172ZM45.5877 99.12C44.9317 99.12 44.3277 99.012 43.7757 98.796C43.2237 98.58 42.7437 98.28 42.3357 97.896C41.9277 97.504 41.6117 97.048 41.3877 96.528C41.1637 96 41.0517 95.424 41.0517 94.8C41.0517 94.176 41.1637 93.604 41.3877 93.084C41.6117 92.556 41.9277 92.1 42.3357 91.716C42.7437 91.324 43.2237 91.02 43.7757 90.804C44.3277 90.588 44.9277 90.48 45.5757 90.48C46.2317 90.48 46.8317 90.588 47.3757 90.804C47.9277 91.02 48.4077 91.324 48.8157 91.716C49.2237 92.1 49.5397 92.556 49.7637 93.084C49.9877 93.604 50.0997 94.176 50.0997 94.8C50.0997 95.424 49.9877 96 49.7637 96.528C49.5397 97.056 49.2237 97.512 48.8157 97.896C48.4077 98.28 47.9277 98.58 47.3757 98.796C46.8317 99.012 46.2357 99.12 45.5877 99.12ZM45.5757 97.752C45.9997 97.752 46.3917 97.68 46.7517 97.536C47.1117 97.392 47.4237 97.188 47.6877 96.924C47.9517 96.652 48.1557 96.34 48.2997 95.988C48.4517 95.628 48.5277 95.232 48.5277 94.8C48.5277 94.368 48.4517 93.976 48.2997 93.624C48.1557 93.264 47.9517 92.952 47.6877 92.688C47.4237 92.416 47.1117 92.208 46.7517 92.064C46.3917 91.92 45.9997 91.848 45.5757 91.848C45.1517 91.848 44.7597 91.92 44.3997 92.064C44.0477 92.208 43.7357 92.416 43.4637 92.688C43.1997 92.952 42.9917 93.264 42.8397 93.624C42.6957 93.976 42.6237 94.368 42.6237 94.8C42.6237 95.224 42.6957 95.616 42.8397 95.976C42.9917 96.336 43.1997 96.652 43.4637 96.924C43.7277 97.188 44.0397 97.392 44.3997 97.536C44.7597 97.68 45.1517 97.752 45.5757 97.752ZM51.8364 99V90.6H59.2644V99H57.7284V91.536L58.0884 91.92H53.0124L53.3724 91.536V99H51.8364ZM63.073 94.092H67.249V95.376H63.073V94.092ZM63.193 97.692H67.933V99H61.633V90.6H67.765V91.908H63.193V97.692ZM69.6721 99V90.6H73.1281C73.8721 90.6 74.5081 90.72 75.0361 90.96C75.5721 91.2 75.9841 91.544 76.2721 91.992C76.5601 92.44 76.7041 92.972 76.7041 93.588C76.7041 94.204 76.5601 94.736 76.2721 95.184C75.9841 95.632 75.5721 95.976 75.0361 96.216C74.5081 96.456 73.8721 96.576 73.1281 96.576H70.5361L71.2321 95.844V99H69.6721ZM71.2321 96.012L70.5361 95.256H73.0561C73.7441 95.256 74.2601 95.112 74.6041 94.824C74.9561 94.528 75.1321 94.116 75.1321 93.588C75.1321 93.052 74.9561 92.64 74.6041 92.352C74.2601 92.064 73.7441 91.92 73.0561 91.92H70.5361L71.2321 91.152V96.012ZM79.6199 94.092H83.7959V95.376H79.6199V94.092ZM79.7399 97.692H84.4799V99H78.1799V90.6H84.3119V91.908H79.7399V97.692ZM86.231 99V90.6H89.987C90.931 90.6 91.667 90.788 92.195 91.164C92.723 91.532 92.987 92.064 92.987 92.76C92.987 93.448 92.735 93.98 92.231 94.356C91.727 94.724 91.063 94.908 90.239 94.908L90.455 94.476C91.391 94.476 92.115 94.664 92.627 95.04C93.139 95.416 93.395 95.96 93.395 96.672C93.395 97.4 93.127 97.972 92.591 98.388C92.055 98.796 91.263 99 90.215 99H86.231ZM87.767 97.8H90.167C90.711 97.8 91.123 97.7 91.403 97.5C91.683 97.292 91.823 96.976 91.823 96.552C91.823 96.128 91.683 95.82 91.403 95.628C91.123 95.428 90.711 95.328 90.167 95.328H87.767V97.8ZM87.767 94.188H89.855C90.359 94.188 90.743 94.088 91.007 93.888C91.271 93.68 91.403 93.384 91.403 93C91.403 92.6 91.271 92.3 91.007 92.1C90.743 91.9 90.359 91.8 89.855 91.8H87.767V94.188ZM99.0721 99.12C98.4161 99.12 97.8121 99.012 97.2601 98.796C96.7081 98.58 96.2281 98.28 95.8201 97.896C95.4121 97.504 95.0961 97.048 94.8721 96.528C94.6481 96 94.5361 95.424 94.5361 94.8C94.5361 94.176 94.6481 93.604 94.8721 93.084C95.0961 92.556 95.4121 92.1 95.8201 91.716C96.2281 91.324 96.7081 91.02 97.2601 90.804C97.8121 90.588 98.4121 90.48 99.0601 90.48C99.7161 90.48 100.316 90.588 100.86 90.804C101.412 91.02 101.892 91.324 102.3 91.716C102.708 92.1 103.024 92.556 103.248 93.084C103.472 93.604 103.584 94.176 103.584 94.8C103.584 95.424 103.472 96 103.248 96.528C103.024 97.056 102.708 97.512 102.3 97.896C101.892 98.28 101.412 98.58 100.86 98.796C100.316 99.012 99.7201 99.12 99.0721 99.12ZM99.0601 97.752C99.4841 97.752 99.8761 97.68 100.236 97.536C100.596 97.392 100.908 97.188 101.172 96.924C101.436 96.652 101.64 96.34 101.784 95.988C101.936 95.628 102.012 95.232 102.012 94.8C102.012 94.368 101.936 93.976 101.784 93.624C101.64 93.264 101.436 92.952 101.172 92.688C100.908 92.416 100.596 92.208 100.236 92.064C99.8761 91.92 99.4841 91.848 99.0601 91.848C98.6361 91.848 98.2441 91.92 97.8841 92.064C97.5321 92.208 97.2201 92.416 96.9481 92.688C96.6841 92.952 96.4761 93.264 96.3241 93.624C96.1801 93.976 96.1081 94.368 96.1081 94.8C96.1081 95.224 96.1801 95.616 96.3241 95.976C96.4761 96.336 96.6841 96.652 96.9481 96.924C97.2121 97.188 97.5241 97.392 97.8841 97.536C98.2441 97.68 98.6361 97.752 99.0601 97.752ZM104.246 98.172L104.75 97.032C105.11 97.28 105.502 97.472 105.926 97.608C106.358 97.736 106.786 97.804 107.21 97.812C107.634 97.82 108.018 97.772 108.362 97.668C108.714 97.564 108.994 97.408 109.202 97.2C109.41 96.992 109.514 96.732 109.514 96.42C109.514 96.044 109.358 95.764 109.046 95.58C108.742 95.388 108.326 95.292 107.798 95.292H105.842V94.068H107.678C108.15 94.068 108.514 93.972 108.77 93.78C109.034 93.588 109.166 93.328 109.166 93C109.166 92.728 109.078 92.504 108.902 92.328C108.734 92.152 108.502 92.02 108.206 91.932C107.918 91.844 107.59 91.804 107.222 91.812C106.862 91.812 106.486 91.868 106.094 91.98C105.702 92.084 105.33 92.24 104.978 92.448L104.486 91.188C105.014 90.908 105.566 90.712 106.142 90.6C106.726 90.488 107.29 90.456 107.834 90.504C108.378 90.552 108.866 90.676 109.298 90.876C109.738 91.076 110.09 91.34 110.354 91.668C110.618 91.988 110.75 92.368 110.75 92.808C110.75 93.208 110.642 93.564 110.426 93.876C110.218 94.18 109.93 94.416 109.562 94.584C109.194 94.752 108.766 94.836 108.278 94.836L108.338 94.452C108.89 94.452 109.37 94.548 109.778 94.74C110.194 94.924 110.514 95.18 110.738 95.508C110.97 95.836 111.086 96.216 111.086 96.648C111.086 97.056 110.982 97.42 110.774 97.74C110.566 98.052 110.282 98.316 109.922 98.532C109.562 98.74 109.15 98.896 108.686 99C108.222 99.096 107.734 99.132 107.222 99.108C106.71 99.084 106.198 98.996 105.686 98.844C105.182 98.692 104.702 98.468 104.246 98.172ZM118.423 99L115.579 94.908L116.839 94.128L120.187 99H118.423ZM112.867 99V90.6H114.403V99H112.867ZM113.935 95.46V94.116H116.767V95.46H113.935ZM116.983 94.98L115.555 94.788L118.423 90.6H120.079L116.983 94.98ZM121.258 99V90.6H122.794V96.564L127.306 90.6H128.758V99H127.222V93.048L122.71 99H121.258Z" fill="white"/>
<path d="M80.1129 48.5739C79.7113 48.15 79.3089 47.7262 78.9074 47.3023H109.021L110.226 48.5739H80.1129ZM77.0579 51.1602C76.8399 50.9301 76.6226 50.6999 76.4046 50.4706H106.518L107.171 51.1602H77.0579ZM83.1843 25.1826C85.0627 25.1826 86.5859 26.7904 86.5859 28.7732V35.2432H83.1843V25.1826ZM95.9483 27.4436H100.269C102.168 27.4436 103.922 28.5116 104.872 30.2468L107.606 35.2432H95.9483V27.4436ZM113.328 52.9899C113.328 48.6782 116.639 45.182 120.724 45.182C124.809 45.182 128.12 48.6782 128.12 52.9899C128.12 53.2449 128.106 53.4966 128.083 53.7466H133.227L132.65 49.2288C131.065 47.2509 129.247 45.7723 127.148 44.4452C128.979 44.5272 130.606 44.9287 132.191 45.6399L131.877 43.1868C131.674 41.6047 130.956 40.1451 129.846 39.0606C128.802 38.0406 127.47 37.4098 126.054 37.2641L112.92 35.9138L107.015 25.3258C106.264 23.978 104.893 23.1518 103.412 23.1518H93.2683C86.2455 11.6507 75.2062 11.6432 75.2062 11.6432V8.33911H74.7677V5.97963C74.7677 2.68296 72.2265 -0.000244141 69.1026 -0.000244141V2.26984C71.0406 2.26984 72.6171 3.93391 72.6171 5.97963V8.33911H72.1779V15.916H14.0769C12.8559 15.916 12.2445 17.4749 13.1078 18.3856C13.3645 18.6572 13.7135 18.8095 14.0769 18.8095H45.097C45.6592 19.3989 46.2294 19.9967 46.8109 20.606H18.5202C17.299 20.606 16.6875 22.1641 17.5509 23.0756L20.5557 26.2473C20.8125 26.5188 21.1612 26.6712 21.5245 26.6712H52.5891C53.2904 27.4072 53.9969 28.1498 54.7087 28.8974H26.3748C25.1538 28.8974 24.5423 30.4555 25.406 31.367C26.6949 32.728 27.9841 34.0891 29.2737 35.4501C29.5304 35.7209 29.879 35.8732 30.2424 35.8732H61.3417C62.0492 36.6166 62.7535 37.3593 63.457 38.0994H35.093C33.8718 38.0994 33.2602 39.6583 34.1239 40.5698L37.9916 44.6522C38.2483 44.9229 38.597 45.0761 38.9604 45.0761H70.0806C70.7889 45.822 71.4877 46.5588 72.1779 47.2865V47.3023H43.8105C42.5897 47.3023 41.9781 48.8604 42.8418 49.7719L46.2058 53.3219C46.4629 53.5934 46.8112 53.7466 47.1749 53.7466H75.2062H79.9254H92.262H113.364C113.341 53.4966 113.328 53.2449 113.328 52.9899Z" fill="#D72323"/>
<path d="M120.724 58.9922C118.218 58.9922 116.187 56.8471 116.187 54.202C116.187 51.5577 118.218 49.4135 120.724 49.4135C123.23 49.4135 125.261 51.5577 125.261 54.202C125.261 56.8471 123.23 58.9922 120.724 58.9922ZM120.724 46.3958C116.639 46.3958 113.328 49.8903 113.328 54.202C113.328 58.5137 116.639 62.009 120.724 62.009C124.809 62.009 128.12 58.5137 128.12 54.202C128.12 49.8903 124.809 46.3958 120.724 46.3958Z" fill="#D72323"/>
<path d="M133.662 49.2995H128.352V53.747H127.465V54.6262H133.662C134.211 54.6262 134.656 54.1568 134.656 53.5773V50.3485C134.656 49.769 134.211 49.2995 133.662 49.2995Z" fill="#D72323"/>
</svg>
