<svg width="83" height="56" viewBox="0 0 83 56" fill="none" xmlns="http://www.w3.org/2000/svg">
<path d="M2.324 46L3.878 38.048L4.452 38.762H0.91L1.414 36.2H10.402L9.898 38.762H6.272L7.126 38.048L5.572 46H2.324ZM9.46159 46L11.4216 36.2H15.7756C17.0916 36.2 18.1043 36.4847 18.8136 37.054C19.5323 37.6233 19.8916 38.4213 19.8916 39.448C19.8916 40.2693 19.6863 40.9927 19.2756 41.618C18.8743 42.2433 18.3003 42.7287 17.5536 43.074C16.8163 43.4193 15.9436 43.592 14.9356 43.592H11.7716L13.5356 42.15L12.7656 46H9.46159ZM13.4516 42.542L12.2896 41.044H15.1036C15.5609 41.044 15.9156 40.932 16.1676 40.708C16.4196 40.4747 16.5456 40.1527 16.5456 39.742C16.5456 39.3873 16.4336 39.1353 16.2096 38.986C15.9949 38.8273 15.6963 38.748 15.3136 38.748H12.7516L14.5156 37.208L13.4516 42.542ZM18.481 46L24.725 36.2H27.973L30.297 46H27.007L25.425 37.726H26.713L21.967 46H18.481ZM21.365 44.292L22.681 41.912H27.189L27.553 44.292H21.365ZM39.5175 36.2H42.8215L40.8615 46H37.5575L39.5175 36.2ZM34.5055 46H31.2015L33.1615 36.2H36.4655L34.5055 46ZM38.4955 42.388H35.0095L35.5555 39.672H39.0415L38.4955 42.388ZM48.0639 46.224C47.0559 46.224 46.1739 46.042 45.4179 45.678C44.6619 45.3047 44.0739 44.7913 43.6539 44.138C43.2432 43.4753 43.0379 42.71 43.0379 41.842C43.0379 40.9833 43.1872 40.1947 43.4859 39.476C43.7939 38.7573 44.2232 38.1367 44.7739 37.614C45.3245 37.0913 45.9779 36.69 46.7339 36.41C47.4899 36.1207 48.3205 35.976 49.2259 35.976C50.1685 35.976 51.0039 36.144 51.7319 36.48C52.4599 36.816 53.0012 37.3013 53.3559 37.936L50.9759 39.798C50.7705 39.434 50.5045 39.154 50.1779 38.958C49.8512 38.7527 49.4639 38.65 49.0159 38.65C48.6239 38.65 48.2645 38.7247 47.9379 38.874C47.6205 39.014 47.3452 39.2193 47.1119 39.49C46.8785 39.7513 46.6965 40.064 46.5659 40.428C46.4352 40.792 46.3699 41.1933 46.3699 41.632C46.3699 42.0147 46.4539 42.3507 46.6219 42.64C46.7899 42.9293 47.0232 43.1533 47.3219 43.312C47.6299 43.4707 47.9845 43.55 48.3859 43.55C48.7685 43.55 49.1419 43.4613 49.5059 43.284C49.8792 43.1067 50.2339 42.8173 50.5699 42.416L52.5159 44.278C51.9185 45.006 51.2512 45.5147 50.5139 45.804C49.7859 46.084 48.9692 46.224 48.0639 46.224Z" fill="#EEEEEE"/>
<path d="M57.3148 46L59.2748 36.2H62.5228L61.8228 39.672H64.3568L63.8248 42.388H61.2908L60.5628 46H57.3148ZM66.7928 46.224C65.8408 46.224 65.0055 46.0373 64.2868 45.664C63.5775 45.2907 63.0221 44.7727 62.6208 44.11C62.2195 43.438 62.0188 42.6633 62.0188 41.786C62.0188 40.9833 62.1821 40.232 62.5088 39.532C62.8355 38.832 63.2881 38.216 63.8668 37.684C64.4455 37.152 65.1128 36.7367 65.8688 36.438C66.6248 36.13 67.4321 35.976 68.2908 35.976C69.2428 35.976 70.0735 36.1627 70.7828 36.536C71.5015 36.9093 72.0615 37.4273 72.4628 38.09C72.8641 38.7527 73.0648 39.5273 73.0648 40.414C73.0648 41.2167 72.9015 41.968 72.5748 42.668C72.2481 43.368 71.7955 43.984 71.2168 44.516C70.6381 45.048 69.9708 45.468 69.2148 45.776C68.4588 46.0747 67.6515 46.224 66.7928 46.224ZM67.0868 43.55C67.4415 43.55 67.7775 43.4753 68.0948 43.326C68.4121 43.1673 68.6875 42.9527 68.9208 42.682C69.1635 42.402 69.3501 42.0847 69.4808 41.73C69.6208 41.366 69.6908 40.9833 69.6908 40.582C69.6908 40.1807 69.6208 39.8353 69.4808 39.546C69.3501 39.2567 69.1588 39.0373 68.9068 38.888C68.6548 38.7293 68.3515 38.65 67.9968 38.65C67.6421 38.65 67.3061 38.7293 66.9888 38.888C66.6715 39.0373 66.3915 39.252 66.1488 39.532C65.9155 39.8027 65.7288 40.1153 65.5888 40.47C65.4581 40.8247 65.3928 41.2027 65.3928 41.604C65.3928 42.0053 65.4581 42.3507 65.5888 42.64C65.7288 42.9293 65.9248 43.1533 66.1768 43.312C66.4381 43.4707 66.7415 43.55 67.0868 43.55ZM73.2425 46L75.2025 36.2H82.6645L82.1605 38.762H77.1905L78.0445 38.048L76.4905 46H73.2425Z" fill="#D72323"/>
<path d="M6.693 55V50.1H10.018L10.011 50.87H7.372L7.582 50.653L7.589 55H6.693ZM10.7807 55V50.1H12.7967C13.2307 50.1 13.6017 50.17 13.9097 50.31C14.2224 50.45 14.4627 50.6507 14.6307 50.912C14.7987 51.1733 14.8827 51.4837 14.8827 51.843C14.8827 52.2023 14.7987 52.5127 14.6307 52.774C14.4627 53.0353 14.2224 53.236 13.9097 53.376C13.6017 53.516 13.2307 53.586 12.7967 53.586H11.2847L11.6907 53.159V55H10.7807ZM11.6907 53.257L11.2847 52.816H12.7547C13.1561 52.816 13.4571 52.732 13.6577 52.564C13.8631 52.3913 13.9657 52.151 13.9657 51.843C13.9657 51.5303 13.8631 51.29 13.6577 51.122C13.4571 50.954 13.1561 50.87 12.7547 50.87H11.2847L11.6907 50.422V53.257ZM15.7042 54.23C15.9609 54.3187 16.1872 54.342 16.3832 54.3C16.5792 54.258 16.7542 54.1157 16.9082 53.873L17.1462 53.502L17.2372 53.404L18.9452 50.1H19.8412L17.7132 54.055C17.5406 54.3863 17.3352 54.6383 17.0972 54.811C16.8592 54.9837 16.6026 55.0793 16.3272 55.098C16.0566 55.1213 15.7742 55.07 15.4802 54.944L15.7042 54.23ZM17.2162 54.188L15.0322 50.1H16.0052L17.7132 53.488L17.2162 54.188ZM20.0389 54.517L20.3329 53.852C20.5429 53.9967 20.7716 54.1087 21.0189 54.188C21.2709 54.2627 21.5206 54.3023 21.7679 54.307C22.0153 54.3117 22.2393 54.2837 22.4399 54.223C22.6453 54.1623 22.8086 54.0713 22.9299 53.95C23.0513 53.8287 23.1119 53.677 23.1119 53.495C23.1119 53.2757 23.0209 53.1123 22.8389 53.005C22.6616 52.893 22.4189 52.837 22.1109 52.837H20.9699V52.123H22.0409C22.3163 52.123 22.5286 52.067 22.6779 51.955C22.8319 51.843 22.9089 51.6913 22.9089 51.5C22.9089 51.3413 22.8576 51.2107 22.7549 51.108C22.6569 51.0053 22.5216 50.9283 22.3489 50.877C22.1809 50.8257 21.9896 50.8023 21.7749 50.807C21.5649 50.807 21.3456 50.8397 21.1169 50.905C20.8883 50.9657 20.6713 51.0567 20.4659 51.178L20.1789 50.443C20.4869 50.2797 20.8089 50.1653 21.1449 50.1C21.4856 50.0347 21.8146 50.016 22.1319 50.044C22.4493 50.072 22.7339 50.1443 22.9859 50.261C23.2426 50.3777 23.4479 50.5317 23.6019 50.723C23.7559 50.9097 23.8329 51.1313 23.8329 51.388C23.8329 51.6213 23.7699 51.829 23.6439 52.011C23.5226 52.1883 23.3546 52.326 23.1399 52.424C22.9253 52.522 22.6756 52.571 22.3909 52.571L22.4259 52.347C22.7479 52.347 23.0279 52.403 23.2659 52.515C23.5086 52.6223 23.6953 52.7717 23.8259 52.963C23.9613 53.1543 24.0289 53.376 24.0289 53.628C24.0289 53.866 23.9683 54.0783 23.8469 54.265C23.7256 54.447 23.5599 54.601 23.3499 54.727C23.1399 54.8483 22.8996 54.9393 22.6289 55C22.3583 55.056 22.0736 55.077 21.7749 55.063C21.4763 55.049 21.1776 54.9977 20.8789 54.909C20.5849 54.8203 20.3049 54.6897 20.0389 54.517ZM27.3428 55.07C26.9602 55.07 26.6078 55.007 26.2858 54.881C25.9638 54.755 25.6838 54.58 25.4458 54.356C25.2078 54.1273 25.0235 53.8613 24.8928 53.558C24.7622 53.25 24.6968 52.914 24.6968 52.55C24.6968 52.186 24.7622 51.8523 24.8928 51.549C25.0235 51.241 25.2078 50.975 25.4458 50.751C25.6838 50.5223 25.9638 50.345 26.2858 50.219C26.6078 50.093 26.9578 50.03 27.3358 50.03C27.7185 50.03 28.0685 50.093 28.3858 50.219C28.7078 50.345 28.9878 50.5223 29.2258 50.751C29.4638 50.975 29.6482 51.241 29.7788 51.549C29.9095 51.8523 29.9748 52.186 29.9748 52.55C29.9748 52.914 29.9095 53.25 29.7788 53.558C29.6482 53.866 29.4638 54.132 29.2258 54.356C28.9878 54.58 28.7078 54.755 28.3858 54.881C28.0685 55.007 27.7208 55.07 27.3428 55.07ZM27.3358 54.272C27.5832 54.272 27.8118 54.23 28.0218 54.146C28.2318 54.062 28.4138 53.943 28.5678 53.789C28.7218 53.6303 28.8408 53.4483 28.9248 53.243C29.0135 53.033 29.0578 52.802 29.0578 52.55C29.0578 52.298 29.0135 52.0693 28.9248 51.864C28.8408 51.654 28.7218 51.472 28.5678 51.318C28.4138 51.1593 28.2318 51.038 28.0218 50.954C27.8118 50.87 27.5832 50.828 27.3358 50.828C27.0885 50.828 26.8598 50.87 26.6498 50.954C26.4445 51.038 26.2625 51.1593 26.1038 51.318C25.9498 51.472 25.8285 51.654 25.7398 51.864C25.6558 52.0693 25.6138 52.298 25.6138 52.55C25.6138 52.7973 25.6558 53.026 25.7398 53.236C25.8285 53.446 25.9498 53.6303 26.1038 53.789C26.2578 53.943 26.4398 54.062 26.6498 54.146C26.8598 54.23 27.0885 54.272 27.3358 54.272ZM30.9879 55V50.1H35.3209V55H34.4249V50.646L34.6349 50.87H31.6739L31.8839 50.646V55H30.9879ZM37.5426 52.137H39.9786V52.886H37.5426V52.137ZM37.6126 54.237H40.3776V55H36.7026V50.1H40.2796V50.863H37.6126V54.237ZM41.3921 55V50.1H43.4081C43.8421 50.1 44.2131 50.17 44.5211 50.31C44.8337 50.45 45.0741 50.6507 45.2421 50.912C45.4101 51.1733 45.4941 51.4837 45.4941 51.843C45.4941 52.2023 45.4101 52.5127 45.2421 52.774C45.0741 53.0353 44.8337 53.236 44.5211 53.376C44.2131 53.516 43.8421 53.586 43.4081 53.586H41.8961L42.3021 53.159V55H41.3921ZM42.3021 53.257L41.8961 52.816H43.3661C43.7674 52.816 44.0684 52.732 44.2691 52.564C44.4744 52.3913 44.5771 52.151 44.5771 51.843C44.5771 51.5303 44.4744 51.29 44.2691 51.122C44.0684 50.954 43.7674 50.87 43.3661 50.87H41.8961L42.3021 50.422V53.257ZM47.1949 52.137H49.6309V52.886H47.1949V52.137ZM47.2649 54.237H50.0299V55H46.3549V50.1H49.9319V50.863H47.2649V54.237ZM51.0514 55V50.1H53.2424C53.7931 50.1 54.2224 50.2097 54.5304 50.429C54.8384 50.6437 54.9924 50.954 54.9924 51.36C54.9924 51.7613 54.8454 52.0717 54.5514 52.291C54.2574 52.5057 53.8701 52.613 53.3894 52.613L53.5154 52.361C54.0614 52.361 54.4837 52.4707 54.7824 52.69C55.0811 52.9093 55.2304 53.2267 55.2304 53.642C55.2304 54.0667 55.0741 54.4003 54.7614 54.643C54.4487 54.881 53.9867 55 53.3754 55H51.0514ZM51.9474 54.3H53.3474C53.6647 54.3 53.9051 54.2417 54.0684 54.125C54.2317 54.0037 54.3134 53.8193 54.3134 53.572C54.3134 53.3247 54.2317 53.145 54.0684 53.033C53.9051 52.9163 53.6647 52.858 53.3474 52.858H51.9474V54.3ZM51.9474 52.193H53.1654C53.4594 52.193 53.6834 52.1347 53.8374 52.018C53.9914 51.8967 54.0684 51.724 54.0684 51.5C54.0684 51.2667 53.9914 51.0917 53.8374 50.975C53.6834 50.8583 53.4594 50.8 53.1654 50.8H51.9474V52.193ZM58.5421 55.07C58.1594 55.07 57.8071 55.007 57.4851 54.881C57.1631 54.755 56.8831 54.58 56.6451 54.356C56.4071 54.1273 56.2227 53.8613 56.0921 53.558C55.9614 53.25 55.8961 52.914 55.8961 52.55C55.8961 52.186 55.9614 51.8523 56.0921 51.549C56.2227 51.241 56.4071 50.975 56.6451 50.751C56.8831 50.5223 57.1631 50.345 57.4851 50.219C57.8071 50.093 58.1571 50.03 58.5351 50.03C58.9177 50.03 59.2677 50.093 59.5851 50.219C59.9071 50.345 60.1871 50.5223 60.4251 50.751C60.6631 50.975 60.8474 51.241 60.9781 51.549C61.1087 51.8523 61.1741 52.186 61.1741 52.55C61.1741 52.914 61.1087 53.25 60.9781 53.558C60.8474 53.866 60.6631 54.132 60.4251 54.356C60.1871 54.58 59.9071 54.755 59.5851 54.881C59.2677 55.007 58.9201 55.07 58.5421 55.07ZM58.5351 54.272C58.7824 54.272 59.0111 54.23 59.2211 54.146C59.4311 54.062 59.6131 53.943 59.7671 53.789C59.9211 53.6303 60.0401 53.4483 60.1241 53.243C60.2127 53.033 60.2571 52.802 60.2571 52.55C60.2571 52.298 60.2127 52.0693 60.1241 51.864C60.0401 51.654 59.9211 51.472 59.7671 51.318C59.6131 51.1593 59.4311 51.038 59.2211 50.954C59.0111 50.87 58.7824 50.828 58.5351 50.828C58.2877 50.828 58.0591 50.87 57.8491 50.954C57.6437 51.038 57.4617 51.1593 57.3031 51.318C57.1491 51.472 57.0277 51.654 56.9391 51.864C56.8551 52.0693 56.8131 52.298 56.8131 52.55C56.8131 52.7973 56.8551 53.026 56.9391 53.236C57.0277 53.446 57.1491 53.6303 57.3031 53.789C57.4571 53.943 57.6391 54.062 57.8491 54.146C58.0591 54.23 58.2877 54.272 58.5351 54.272ZM61.5604 54.517L61.8544 53.852C62.0644 53.9967 62.2931 54.1087 62.5404 54.188C62.7924 54.2627 63.0421 54.3023 63.2894 54.307C63.5368 54.3117 63.7608 54.2837 63.9614 54.223C64.1668 54.1623 64.3301 54.0713 64.4514 53.95C64.5728 53.8287 64.6334 53.677 64.6334 53.495C64.6334 53.2757 64.5424 53.1123 64.3604 53.005C64.1831 52.893 63.9404 52.837 63.6324 52.837H62.4914V52.123H63.5624C63.8378 52.123 64.0501 52.067 64.1994 51.955C64.3534 51.843 64.4304 51.6913 64.4304 51.5C64.4304 51.3413 64.3791 51.2107 64.2764 51.108C64.1784 51.0053 64.0431 50.9283 63.8704 50.877C63.7024 50.8257 63.5111 50.8023 63.2964 50.807C63.0864 50.807 62.8671 50.8397 62.6384 50.905C62.4098 50.9657 62.1928 51.0567 61.9874 51.178L61.7004 50.443C62.0084 50.2797 62.3304 50.1653 62.6664 50.1C63.0071 50.0347 63.3361 50.016 63.6534 50.044C63.9708 50.072 64.2554 50.1443 64.5074 50.261C64.7641 50.3777 64.9694 50.5317 65.1234 50.723C65.2774 50.9097 65.3544 51.1313 65.3544 51.388C65.3544 51.6213 65.2914 51.829 65.1654 52.011C65.0441 52.1883 64.8761 52.326 64.6614 52.424C64.4468 52.522 64.1971 52.571 63.9124 52.571L63.9474 52.347C64.2694 52.347 64.5494 52.403 64.7874 52.515C65.0301 52.6223 65.2168 52.7717 65.3474 52.963C65.4828 53.1543 65.5504 53.376 65.5504 53.628C65.5504 53.866 65.4898 54.0783 65.3684 54.265C65.2471 54.447 65.0814 54.601 64.8714 54.727C64.6614 54.8483 64.4211 54.9393 64.1504 55C63.8798 55.056 63.5951 55.077 63.2964 55.063C62.9978 55.049 62.6991 54.9977 62.4004 54.909C62.1064 54.8203 61.8264 54.6897 61.5604 54.517ZM69.8303 55L68.1713 52.613L68.9063 52.158L70.8593 55H69.8303ZM66.5893 55V50.1H67.4853V55H66.5893ZM67.2123 52.935V52.151H68.8643V52.935H67.2123ZM68.9903 52.655L68.1573 52.543L69.8303 50.1H70.7963L68.9903 52.655ZM71.484 55V50.1H72.38V53.579L75.012 50.1H75.859V55H74.963V51.528L72.331 55H71.484Z" fill="white"/>
<path d="M44.1439 26.7653C43.9226 26.5318 43.7009 26.2982 43.4796 26.0647H60.0726L60.7368 26.7653H44.1439ZM42.4605 28.1905C42.3404 28.0637 42.2207 27.9368 42.1005 27.8105H58.6935L59.0535 28.1905H42.4605ZM45.8363 13.8763C46.8713 13.8763 47.7106 14.7622 47.7106 15.8547V19.4198H45.8363V13.8763ZM52.8695 15.1221H55.2504C56.2967 15.1221 57.263 15.7106 57.7864 16.6668L59.2934 19.4198H52.8695V15.1221ZM62.4461 29.1987C62.4461 26.8228 64.2708 24.8964 66.5215 24.8964C68.7723 24.8964 70.597 26.8228 70.597 29.1987C70.597 29.3392 70.5892 29.4778 70.5766 29.6156H73.4109L73.0928 27.1262C72.2193 26.0364 71.2176 25.2216 70.0611 24.4904C71.0702 24.5355 71.9665 24.7568 72.8399 25.1486L72.6671 23.797C72.5551 22.9252 72.1597 22.1209 71.5477 21.5233C70.9725 20.9613 70.2387 20.6137 69.4586 20.5334L62.2214 19.7894L58.9675 13.9552C58.5535 13.2125 57.798 12.7572 56.9821 12.7572H51.3928C47.523 6.41991 41.4402 6.4158 41.4402 6.4158V4.59515H41.1986V3.29503C41.1986 1.4785 39.7983 1.90735e-06 38.077 1.90735e-06V1.25086C39.1449 1.25086 40.0135 2.1678 40.0135 3.29503V4.59515H39.7715V8.77017H7.75667C7.0839 8.77017 6.74698 9.62917 7.22268 10.131C7.36417 10.2806 7.55645 10.3645 7.75667 10.3645H24.8494C25.1592 10.6893 25.4734 11.0187 25.7938 11.3545H10.205C9.53214 11.3545 9.19517 12.213 9.67091 12.7153L11.3267 14.4629C11.4682 14.6126 11.6603 14.6965 11.8605 14.6965H28.9777C29.3642 15.102 29.7534 15.5112 30.1457 15.9232H14.5331C13.8603 15.9232 13.5233 16.7817 13.9992 17.284C14.7095 18.034 15.4199 18.7839 16.1304 19.5339C16.2719 19.6831 16.464 19.767 16.6642 19.767H33.8006C34.1904 20.1767 34.5785 20.5858 34.9662 20.9937H19.337C18.6641 20.9937 18.3271 21.8527 18.803 22.3549L20.9342 24.6044C21.0756 24.7536 21.2678 24.838 21.468 24.838H38.6159C39.0061 25.249 39.3912 25.655 39.7715 26.056V26.0647H24.1405C23.4678 26.0647 23.1308 26.9232 23.6067 27.4255L25.4604 29.3816C25.602 29.5312 25.7939 29.6156 25.9944 29.6156H41.4402H44.0406H50.8383H62.466C62.4534 29.4778 62.4461 29.3392 62.4461 29.1987Z" fill="#D72323"/>
<path d="M66.5215 32.506C65.1407 32.506 64.0214 31.324 64.0214 29.8665C64.0214 28.4094 65.1407 27.2279 66.5215 27.2279C67.9023 27.2279 69.0217 28.4094 69.0217 29.8665C69.0217 31.324 67.9023 32.506 66.5215 32.506ZM66.5215 25.5651C64.2708 25.5651 62.4461 27.4906 62.4461 29.8665C62.4461 32.2423 64.2708 34.1683 66.5215 34.1683C68.7723 34.1683 70.597 32.2423 70.597 29.8665C70.597 27.4906 68.7723 25.5651 66.5215 25.5651Z" fill="#D72323"/>
<path d="M73.6507 27.165H70.7249V29.6156H70.2357V30.1001H73.6507C73.9528 30.1001 74.1983 29.8414 74.1983 29.5221V27.743C74.1983 27.4236 73.9528 27.165 73.6507 27.165Z" fill="#D72323"/>
</svg>
