<svg width="24" height="23" viewBox="0 0 24 23" fill="none" xmlns="http://www.w3.org/2000/svg">
<path d="M12 0C9.58532 0 7.60714 1.95691 7.60714 4.34562C7.60714 5.71354 8.25659 6.939 9.26454 7.73733H5.14286L0 23H24L18.8571 7.73733H14.7355C15.7434 6.939 16.3929 5.71354 16.3929 4.34562C16.3929 1.95691 14.4147 0 12 0ZM12 1.90783C13.3724 1.90783 14.4643 2.98799 14.4643 4.34562C14.4643 5.70326 13.3724 6.78341 12 6.78341C10.6276 6.78341 9.53571 5.70326 9.53571 4.34562C9.53571 2.98799 10.6276 1.90783 12 1.90783ZM7.59563 12.6632H8.85455V14.426L10.6692 12.6632H12.1308L9.77989 14.9499L12.3728 17.4923H10.7968L8.85455 15.5904V17.4923H7.59563V12.6632ZM14.0207 13.7889C14.2757 13.7889 14.5002 13.8384 14.6942 13.9376C14.8881 14.0368 15.0659 14.193 15.2273 14.4066V13.8697H16.4043V17.1269C16.4043 17.7092 16.2179 18.1534 15.8451 18.4596C15.4746 18.768 14.9361 18.9221 14.2299 18.9221C14.001 18.9221 13.7799 18.9048 13.5661 18.8703C13.3526 18.8359 13.1377 18.7831 12.922 18.7119V17.8094C13.1269 17.9258 13.3275 18.0121 13.5236 18.0682C13.7199 18.1264 13.9172 18.1555 14.1155 18.1555C14.4992 18.1555 14.7804 18.0725 14.9591 17.9065C15.1378 17.7405 15.2273 17.4806 15.2273 17.127V16.8779C15.066 17.0892 14.8882 17.2444 14.6942 17.3436C14.5003 17.4427 14.2757 17.4925 14.0207 17.4925C13.5737 17.4925 13.2043 17.3189 12.9123 16.9717C12.6201 16.6224 12.4741 16.1782 12.4741 15.6391C12.4741 15.0978 12.6201 14.6547 12.9123 14.3097C13.2043 13.9625 13.5737 13.7889 14.0207 13.7889ZM14.4556 14.6233C14.2136 14.6233 14.0249 14.7118 13.8898 14.8886C13.7547 15.0655 13.6871 15.3156 13.6871 15.6391C13.6871 15.9712 13.7525 16.2234 13.8833 16.3959C14.0141 16.5663 14.2049 16.6515 14.4556 16.6515C14.6997 16.6515 14.8893 16.563 15.0245 16.3862C15.1596 16.2093 15.2272 15.9603 15.2272 15.639C15.2272 15.3156 15.1596 15.0654 15.0244 14.8886C14.8893 14.7118 14.6997 14.6233 14.4555 14.6233H14.4556Z" fill="#D72323"/>
</svg>
